<svg width="20" height="20" viewBox="0 0 20 20" fill="none" xmlns="http://www.w3.org/2000/svg">
<rect x="0.5" y="0.5" width="19" height="19" rx="9.5" fill="white"/>
<rect x="0.5" y="0.5" width="19" height="19" rx="9.5" stroke="white"/>
<g clip-path="url(#clip0_53_1440)">
<path d="M6.57417 10.4761C6.17916 9.78737 5.98843 9.22495 5.87343 8.65483C5.70334 7.81165 6.09258 6.988 6.7374 6.46244C7.00993 6.24032 7.32234 6.31621 7.4835 6.60533L7.84732 7.25804C8.1357 7.7754 8.27989 8.03408 8.25129 8.30833C8.22269 8.58257 8.02823 8.80594 7.63932 9.25267L6.57417 10.4761ZM6.57417 10.4761C7.37371 11.8703 8.62843 13.1257 10.0242 13.9262M10.0242 13.9262C10.713 14.3212 11.2754 14.5119 11.8455 14.6269C12.6887 14.797 13.5123 14.4077 14.0379 13.7629C14.26 13.4904 14.1841 13.178 13.895 13.0168L13.2423 12.653C12.7249 12.3646 12.4662 12.2204 12.192 12.249C11.9178 12.2776 11.6944 12.4721 11.2477 12.861L10.0242 13.9262Z" stroke="#FF9D00" stroke-linejoin="round"/>
</g>
<defs>
<clipPath id="clip0_53_1440">
<rect width="10" height="10" fill="white" transform="translate(5 5.5)"/>
</clipPath>
</defs>
</svg>
