<svg width="24" height="25" viewBox="0 0 24 25" fill="none" xmlns="http://www.w3.org/2000/svg">
<rect y="0.762817" width="24" height="24" rx="12" fill="#AFAFFD" fill-opacity="0.26"/>
<path d="M15.8001 18.9862C15.0188 19.096 13.9998 19.096 12.6334 19.096H11.3667C8.67974 19.096 7.33624 19.096 6.50149 18.2612C5.66675 17.4265 5.66675 16.083 5.66675 13.396V12.1293C5.66675 9.44232 5.66675 8.09881 6.50149 7.26407C7.33624 6.42932 8.67974 6.42932 11.3667 6.42932H12.6334C15.3204 6.42932 16.6639 6.42932 17.4987 7.26407C18.3334 8.09881 18.3334 9.44232 18.3334 12.1293V13.396C18.3334 13.9633 18.3334 14.4706 18.3256 14.926C18.3136 15.6216 18.3076 15.9694 18.0388 16.1055C17.77 16.2417 17.4747 16.0327 16.8841 15.6149L16.4334 15.296" stroke="#2B2091" stroke-linecap="round" stroke-linejoin="round"/>
<path d="M13.9637 13.026C13.8459 13.4438 13.2891 13.7391 12.1754 14.3296C11.0988 14.9004 10.5606 15.1858 10.1268 15.0711C9.94743 15.0237 9.78403 14.9336 9.65224 14.8095C9.3335 14.5093 9.3335 13.9271 9.3335 12.7628C9.3335 11.5984 9.3335 11.0162 9.65224 10.7161C9.78403 10.592 9.94743 10.5019 10.1268 10.4545C10.5606 10.3397 11.0988 10.6252 12.1754 11.196C13.2891 11.7865 13.8459 12.0818 13.9637 12.4996C14.0123 12.6721 14.0123 12.8535 13.9637 13.026Z" stroke="#2B2091" stroke-linejoin="round"/>
</svg>
