<svg width="32" height="32" viewBox="0 0 32 32" fill="none" xmlns="http://www.w3.org/2000/svg">
<rect x="0.5" y="0.5" width="31" height="31" rx="15.5" fill="#E9F4FF" fill-opacity="0.5"/>
<rect x="0.5" y="0.5" width="31" height="31" rx="15.5" stroke="#1D4877"/>
<path d="M9.33301 12L13.9417 14.6113C15.6407 15.574 16.3586 15.574 18.0577 14.6113L22.6663 12" stroke="#1D4877" stroke-linejoin="round"/>
<path d="M9.34352 16.9837C9.3871 19.0274 9.40889 20.0493 10.163 20.8062C10.9171 21.5632 11.9666 21.5895 14.0656 21.6423C15.3592 21.6748 16.6401 21.6748 17.9338 21.6423C20.0328 21.5895 21.0823 21.5632 21.8364 20.8062C22.5905 20.0493 22.6123 19.0274 22.6558 16.9837C22.6698 16.3266 22.6698 15.6734 22.6558 15.0162C22.6123 12.9726 22.5905 11.9507 21.8364 11.1938C21.0823 10.4368 20.0328 10.4104 17.9338 10.3577C16.6401 10.3252 15.3592 10.3252 14.0656 10.3577C11.9666 10.4104 10.9171 10.4368 10.163 11.1937C9.40889 11.9507 9.3871 12.9725 9.34352 15.0162C9.3295 15.6734 9.3295 16.3266 9.34352 16.9837Z" stroke="#1D4877" stroke-linejoin="round"/>
</svg>
