<svg width="25" height="25" viewBox="0 0 25 25" fill="none" xmlns="http://www.w3.org/2000/svg">
<rect x="0.0996094" y="0.750366" width="24.2132" height="24.2132" rx="12.1066" transform="rotate(-0.552771 0.0996094 0.750366)" fill="#A06DA3" fill-opacity="0.13"/>
<path d="M12.5022 6.07528C12.3917 6.07239 12.2805 6.0722 12.1688 6.07478C8.48788 6.15969 5.57274 9.21249 5.65764 12.8934C5.74255 16.5743 8.79536 19.4895 12.4763 19.4046C16.1572 19.3197 19.0723 16.2669 18.9874 12.5859C18.9742 12.0106 18.8884 11.454 18.739 10.9246" stroke="#661C78" stroke-linecap="round" stroke-linejoin="round"/>
<path d="M9.70264 14.8007C10.3292 15.5961 11.3092 16.0973 12.3993 16.0721C13.4895 16.047 14.4453 15.5011 15.0346 14.6777" stroke="#661C78" stroke-linecap="round" stroke-linejoin="round"/>
<path d="M10.9511 11.1043L10.0894 11.1241C9.78768 11.1311 9.50105 11.2576 9.2926 11.4759M13.6171 11.0428L14.4788 11.0229C14.7805 11.0159 15.0727 11.1291 15.291 11.3376" stroke="#661C78" stroke-linecap="round" stroke-linejoin="round"/>
<path d="M14.7652 6.23576C15.3823 5.85589 15.9317 5.99056 16.2651 6.21758C16.4018 6.31066 16.4702 6.3572 16.5097 6.35629C16.5493 6.35537 16.6154 6.30573 16.7477 6.20645C17.0703 5.9643 17.6128 5.80444 18.2468 6.15545C19.0788 6.61611 19.3011 8.19405 17.4383 9.5726C17.0834 9.83517 16.906 9.96646 16.5932 9.97367C16.2803 9.98089 16.097 9.85793 15.7305 9.61199C13.806 8.32081 13.9553 6.7343 14.7652 6.23576Z" stroke="#661C78" stroke-linecap="round"/>
</svg>
