<svg width="24" height="25" viewBox="0 0 24 25" fill="none" xmlns="http://www.w3.org/2000/svg">
<rect y="0.762817" width="24" height="24" rx="12" fill="#07A407" fill-opacity="0.1"/>
<path d="M10.3335 11.7627C10.6612 11.4256 11.5333 10.0961 12.0002 10.0961M13.6668 11.7627C13.3391 11.4256 12.467 10.0961 12.0002 10.0961M12.0002 10.0961V15.4294" stroke="#3EA441" stroke-linecap="round" stroke-linejoin="round"/>
<path d="M5.66675 12.7628C5.66675 9.77721 5.66675 8.28443 6.59424 7.35694C7.52174 6.42944 9.01452 6.42944 12.0001 6.42944C14.9856 6.42944 16.4784 6.42944 17.4059 7.35694C18.3334 8.28443 18.3334 9.77721 18.3334 12.7628C18.3334 15.7483 18.3334 17.2411 17.4059 18.1686C16.4784 19.0961 14.9856 19.0961 12.0001 19.0961C9.01452 19.0961 7.52174 19.0961 6.59424 18.1686C5.66675 17.2411 5.66675 15.7483 5.66675 12.7628Z" stroke="#3EA441"/>
</svg>
