<svg width="25" height="24" viewBox="0 0 25 24" fill="none" xmlns="http://www.w3.org/2000/svg">
<path d="M16.6665 22C15.6005 20.7553 14.2002 20 12.6665 20C11.1328 20 9.73254 20.7553 8.6665 22" stroke="#2BBAD3" stroke-width="1.5" stroke-linecap="round"/>
<path d="M12.6665 13C11.3984 13 10.0576 13.2193 9.00653 13.5128C8.21509 13.7338 7.57845 14.7415 7.6765 15.5596C7.71282 15.8627 7.97381 16 8.24823 16H17.0848C17.3592 16 17.6202 15.8627 17.6565 15.5596C17.7546 14.7415 17.1179 13.7338 16.3265 13.5128C15.2754 13.2193 13.9346 13 12.6665 13Z" stroke="#2BBAD3" stroke-width="1.5" stroke-linecap="round"/>
<path d="M21.6665 10C20.5619 10 19.6665 10.8954 19.6665 12V13C19.6665 14.1046 18.7711 15 17.6665 15" stroke="#2BBAD3" stroke-width="1.5" stroke-linecap="round" stroke-linejoin="round"/>
<path d="M3.6665 10C4.77107 10 5.6665 10.8954 5.6665 12V13C5.6665 14.1046 6.56193 15 7.6665 15" stroke="#2BBAD3" stroke-width="1.5" stroke-linecap="round" stroke-linejoin="round"/>
<path d="M12.6665 16V22" stroke="#2BBAD3" stroke-width="1.5" stroke-linecap="round" stroke-linejoin="round"/>
<path d="M13.4862 10H11.8468C10.4446 10 9.74355 10 9.23638 9.57641C8.72922 9.15282 8.55919 8.42526 8.21912 6.97014C7.68443 4.68228 7.41709 3.53835 7.9785 2.76918C8.53991 2 9.64219 2 11.8468 2H13.4862C15.6908 2 16.7931 2 17.3545 2.76918C17.9159 3.53835 17.6486 4.68228 17.1139 6.97014C16.7738 8.42526 16.6038 9.15282 16.0966 9.57641C15.5895 10 14.8884 10 13.4862 10Z" stroke="#2BBAD3" stroke-width="1.5" stroke-linecap="round" stroke-linejoin="round"/>
<path d="M12.6665 10V13" stroke="#2BBAD3" stroke-width="1.5" stroke-linecap="round" stroke-linejoin="round"/>
</svg>
