<svg width="304" height="448" viewBox="0 0 304 448" fill="none" xmlns="http://www.w3.org/2000/svg">
<path d="M111.935 415.723L269.968 257.971C288.754 239.219 288.753 208.781 269.968 190.029L112.541 32.8824C94.3388 14.7124 64.8613 14.7124 46.6589 32.8824C28.4106 51.0982 28.4105 80.6664 46.6589 98.8822L137.266 189.328C156.323 208.351 156.007 239.326 136.566 257.956L44.1625 346.505C24.0712 365.758 24.854 398.32 45.4611 417.02C64.4107 434.216 93.8243 433.801 111.935 415.723Z" stroke="#009E9F" stroke-opacity="0.2" stroke-width="3"/>
<path d="M-3.46042 322.944L78.8966 241.015C88.3281 231.632 88.3281 216.368 78.8966 206.985L-2.68846 125.824C-12.0426 116.518 -27.1573 116.518 -36.5115 125.824C-45.9348 135.198 -45.9348 150.449 -36.5115 159.823L10.544 206.635C20.1115 216.152 19.9531 231.685 10.1933 241.006L-38.3246 287.341C-48.4102 296.973 -48.1905 313.144 -37.847 322.498L-36.4848 323.73C-27.0189 332.291 -12.5086 331.945 -3.46042 322.944Z" stroke="#009E9F" stroke-opacity="0.2" stroke-width="3"/>
</svg>
