<svg width="32" height="32" viewBox="0 0 32 32" fill="none" xmlns="http://www.w3.org/2000/svg">
<rect x="0.5" y="0.5" width="31" height="31" rx="15.5" fill="#F4F9FF"/>
<rect x="0.5" y="0.5" width="31" height="31" rx="15.5" stroke="#1D4877"/>
<path d="M18.3337 15.3333C18.3337 16.622 17.289 17.6667 16.0003 17.6667C14.7117 17.6667 13.667 16.622 13.667 15.3333C13.667 14.0447 14.7117 13 16.0003 13C17.289 13 18.3337 14.0447 18.3337 15.3333Z" stroke="#1D4877"/>
<path d="M16 9.33337C19.247 9.33337 22 12.022 22 15.2839C22 18.5977 19.2022 20.9232 16.618 22.5045C16.4297 22.6108 16.2167 22.6667 16 22.6667C15.7833 22.6667 15.5703 22.6108 15.382 22.5045C12.8026 20.9077 10 18.6091 10 15.2839C10 12.022 12.753 9.33337 16 9.33337Z" stroke="#1D4877"/>
</svg>
