<svg width="24" height="25" viewBox="0 0 24 25" fill="none" xmlns="http://www.w3.org/2000/svg">
<rect y="0.762817" width="24" height="24" rx="12" fill="#FF00B2" fill-opacity="0.08"/>
<path d="M10.6667 13.6517C10.6667 13.445 10.6667 13.3417 10.6895 13.2569C10.7511 13.0269 10.9308 12.8472 11.1609 12.7855C11.2456 12.7628 11.349 12.7628 11.5556 12.7628H12.4445C12.6512 12.7628 12.7545 12.7628 12.8393 12.7855C13.0694 12.8472 13.2491 13.0269 13.3107 13.2569C13.3334 13.3417 13.3334 13.445 13.3334 13.6517V14.0962C13.3334 14.8325 12.7365 15.4295 12.0001 15.4295C11.2637 15.4295 10.6667 14.8325 10.6667 14.0962V13.6517Z" stroke="#E652B0" stroke-linecap="round" stroke-linejoin="round"/>
<path d="M13.2667 13.7627H14.0551C14.9113 13.7627 15.3394 13.7627 15.7038 13.6855C16.7588 13.4621 17.6194 12.7765 17.996 11.8598C18.1261 11.543 18.1792 11.1597 18.2854 10.3932C18.3253 10.1054 18.3452 9.96156 18.3261 9.84386C18.2702 9.50109 17.9955 9.22032 17.6255 9.12783C17.4984 9.09607 17.3377 9.09607 17.0163 9.09607H6.98383C6.66242 9.09607 6.50172 9.09607 6.37466 9.12783C6.00463 9.22032 5.72993 9.50109 5.67411 9.84386C5.65494 9.96156 5.67487 10.1054 5.71474 10.3932C5.82093 11.1597 5.87403 11.543 6.00414 11.8598C6.38075 12.7765 7.2414 13.4621 8.29632 13.6855C8.66078 13.7627 9.08887 13.7627 9.94504 13.7627H10.7334" stroke="#E652B0"/>
<path d="M6.3335 12.4294V13.7628C6.3335 16.2769 6.3335 17.534 7.07115 18.3151C7.80881 19.0961 8.99605 19.0961 11.3705 19.0961H12.6298C15.0043 19.0961 16.1915 19.0961 16.9292 18.3151C17.6668 17.534 17.6668 16.2769 17.6668 13.7628V12.4294" stroke="#E652B0" stroke-linecap="round" stroke-linejoin="round"/>
<path d="M14.3334 9.09611L14.2819 8.86063C14.0252 7.68727 13.8969 7.10058 13.5914 6.76501C13.2858 6.42944 12.88 6.42944 12.0683 6.42944H11.9319C11.1202 6.42944 10.7143 6.42944 10.4088 6.76501C10.1033 7.10058 9.97493 7.68727 9.71826 8.86063L9.66675 9.09611" stroke="#E652B0"/>
</svg>
