<svg width="32" height="32" viewBox="0 0 32 32" fill="none" xmlns="http://www.w3.org/2000/svg">
<rect x="0.5" y="0.5" width="31" height="31" rx="15.5" fill="#F4F9FF"/>
<rect x="0.5" y="0.5" width="31" height="31" rx="15.5" stroke="#1D4877"/>
<g clip-path="url(#clip0_45_1311)">
<path d="M10.5181 15.9616C9.88607 14.8595 9.58091 13.9596 9.3969 13.0475C9.12476 11.6984 9.74755 10.3805 10.7793 9.53963C11.2153 9.18423 11.7152 9.30566 11.973 9.76825L12.5551 10.8126C13.0165 11.6404 13.2472 12.0542 13.2015 12.493C13.1557 12.9318 12.8446 13.2892 12.2223 14.004L10.5181 15.9616ZM10.5181 15.9616C11.7973 18.1922 13.8049 20.2008 16.0381 21.4816M16.0381 21.4816C17.1401 22.1136 18.04 22.4187 18.9522 22.6028C20.3013 22.8749 21.6191 22.2521 22.46 21.2204C22.8154 20.7843 22.694 20.2845 22.2314 20.0266L21.1871 19.4445C20.3593 18.9831 19.9454 18.7524 19.5066 18.7982C19.0678 18.8439 18.7104 19.1551 17.9957 19.7773L16.0381 21.4816Z" stroke="#1D4877" stroke-linejoin="round"/>
</g>
<defs>
<clipPath id="clip0_45_1311">
<rect width="16" height="16" fill="white" transform="translate(8 8)"/>
</clipPath>
</defs>
</svg>
