<svg width="58" height="58" viewBox="0 0 58 58" fill="none" xmlns="http://www.w3.org/2000/svg">
<g filter="url(#filter0_d_53_1433)">
<path d="M3 28C3 13.6406 14.6406 2 29 2V2C43.3594 2 55 13.6406 55 28V28C55 42.3594 43.3594 54 29 54V54C14.6406 54 3 42.3594 3 28V28Z" fill="#F8F2E7" fill-opacity="0.23" shape-rendering="crispEdges"/>
<path d="M29 53.75C14.7787 53.75 3.25 42.2213 3.25 28C3.25 13.7787 14.7787 2.25 29 2.25C43.2213 2.25 54.75 13.7787 54.75 28C54.75 42.2213 43.2213 53.75 29 53.75Z" stroke="#FDF0DA" stroke-width="0.5" shape-rendering="crispEdges"/>
<circle cx="28.9998" cy="27.9998" r="13.3333" stroke="#C58009" stroke-width="2"/>
<path d="M26.5 23.8335C26.5 22.4528 27.6193 21.3335 29 21.3335C30.3807 21.3335 31.5 22.4528 31.5 23.8335C31.5 24.7501 31.0067 25.5515 30.2712 25.9867C29.6374 26.3616 29 26.9304 29 27.6668V29.3335" stroke="#C58009" stroke-width="2" stroke-linecap="round"/>
<circle cx="28.9998" cy="33.3333" r="1.33333" fill="#C58009"/>
</g>
<defs>
<filter id="filter0_d_53_1433" x="0.0999999" y="0.0999999" width="57.8" height="57.8" filterUnits="userSpaceOnUse" color-interpolation-filters="sRGB">
<feFlood flood-opacity="0" result="BackgroundImageFix"/>
<feColorMatrix in="SourceAlpha" type="matrix" values="0 0 0 0 0 0 0 0 0 0 0 0 0 0 0 0 0 0 127 0" result="hardAlpha"/>
<feOffset dy="1"/>
<feGaussianBlur stdDeviation="1.45"/>
<feComposite in2="hardAlpha" operator="out"/>
<feColorMatrix type="matrix" values="0 0 0 0 0 0 0 0 0 0 0 0 0 0 0 0 0 0 0.05 0"/>
<feBlend mode="normal" in2="BackgroundImageFix" result="effect1_dropShadow_53_1433"/>
<feBlend mode="normal" in="SourceGraphic" in2="effect1_dropShadow_53_1433" result="shape"/>
</filter>
</defs>
</svg>
