<svg width="265" height="448" viewBox="0 0 265 448" fill="none" xmlns="http://www.w3.org/2000/svg">
<path d="M192.065 32.2769L34.032 190.029C15.2465 208.781 15.2465 239.219 34.0321 257.971L191.459 415.118C209.661 433.288 239.139 433.288 257.341 415.118C275.589 396.902 275.59 367.334 257.341 349.118L166.734 258.672C147.677 239.649 147.993 208.674 167.434 190.044L259.837 101.495C279.929 82.2415 279.146 49.6803 258.539 30.9801C239.589 13.7839 210.176 14.1989 192.065 32.2769Z" stroke="#FF9D00" stroke-opacity="0.2" stroke-width="3"/>
<path d="M307.46 125.056L225.103 206.985C215.672 216.368 215.672 231.632 225.103 241.015L306.688 322.176C316.043 331.482 331.157 331.482 340.512 322.176C349.935 312.802 349.935 297.551 340.512 288.177L293.456 241.365C283.888 231.848 284.047 216.315 293.807 206.994L342.325 160.659C352.41 151.027 352.191 134.856 341.847 125.502L340.485 124.27C331.019 115.709 316.509 116.055 307.46 125.056Z" stroke="#FF9D00" stroke-opacity="0.2" stroke-width="3"/>
</svg>
