<svg width="24" height="25" viewBox="0 0 24 25" fill="none" xmlns="http://www.w3.org/2000/svg">
<rect y="0.762817" width="24" height="24" rx="12" fill="#17A0FF" fill-opacity="0.22"/>
<path d="M8.66675 16.7628L8.66675 15.4294" stroke="#17A0FF" stroke-linecap="round"/>
<path d="M12 16.7628L12 14.7628" stroke="#17A0FF" stroke-linecap="round"/>
<path d="M15.3335 16.7628L15.3335 13.4294" stroke="#17A0FF" stroke-linecap="round"/>
<path d="M8 11.9295C7.72386 11.9295 7.5 12.1533 7.5 12.4295C7.5 12.7056 7.72386 12.9295 8 12.9295V11.9295ZM15.1008 9.34422C15.2378 9.10446 15.1545 8.79903 14.9147 8.66203C14.675 8.52502 14.3695 8.60832 14.2325 8.84808L15.1008 9.34422ZM13.252 8.466C12.9795 8.51094 12.7951 8.76825 12.84 9.04071C12.8849 9.31317 13.1422 9.49761 13.4147 9.45267L13.252 8.466ZM14.1784 8.81994L14.0971 8.3266V8.3266L14.1784 8.81994ZM15.1212 9.35584L14.6406 9.49354L15.1212 9.35584ZM14.8527 10.2339C14.9287 10.4993 15.2056 10.6529 15.471 10.5768C15.7365 10.5008 15.89 10.2239 15.814 9.95844L14.8527 10.2339ZM14.8494 8.81051L15.0965 8.37582L15.0965 8.37582L14.8494 8.81051ZM8 12.4295V12.9295C11.1161 12.9295 13.6509 11.8815 15.1008 9.34422L14.6667 9.09615L14.2325 8.84808C13.0157 10.9775 10.8839 11.9295 8 11.9295V12.4295ZM13.3333 8.95934L13.4147 9.45267L14.2598 9.31327L14.1784 8.81994L14.0971 8.3266L13.252 8.466L13.3333 8.95934ZM15.1212 9.35584L14.6406 9.49354L14.8527 10.2339L15.3333 10.0962L15.814 9.95844L15.6019 9.21813L15.1212 9.35584ZM14.1784 8.81994L14.2598 9.31327C14.4495 9.28198 14.5485 9.26648 14.6182 9.2633C14.6761 9.26065 14.6479 9.27109 14.6023 9.2452L14.8494 8.81051L15.0965 8.37582C14.9129 8.27145 14.7268 8.2573 14.5726 8.26434C14.4301 8.27084 14.2626 8.29929 14.0971 8.3266L14.1784 8.81994ZM15.1212 9.35584L15.6019 9.21813C15.5614 9.07684 15.5174 8.91868 15.4594 8.79018C15.3926 8.64222 15.2869 8.48406 15.0965 8.37582L14.8494 8.81051L14.6023 9.2452C14.5821 9.23372 14.5638 9.21781 14.5509 9.20201C14.5402 9.18893 14.5402 9.18446 14.5479 9.2016C14.5561 9.21967 14.5675 9.2497 14.5839 9.30137C14.6003 9.35297 14.6177 9.41378 14.6406 9.49354L15.1212 9.35584Z" fill="#17A0FF"/>
<path d="M5.66675 12.7628C5.66675 9.77721 5.66675 8.28443 6.59424 7.35694C7.52174 6.42944 9.01452 6.42944 12.0001 6.42944C14.9856 6.42944 16.4784 6.42944 17.4059 7.35694C18.3334 8.28443 18.3334 9.77721 18.3334 12.7628C18.3334 15.7483 18.3334 17.2411 17.4059 18.1686C16.4784 19.0961 14.9856 19.0961 12.0001 19.0961C9.01452 19.0961 7.52174 19.0961 6.59424 18.1686C5.66675 17.2411 5.66675 15.7483 5.66675 12.7628Z" stroke="#17A0FF"/>
</svg>
