<svg width="891" height="264" viewBox="0 0 891 264" fill="none" xmlns="http://www.w3.org/2000/svg">
<g clip-path="url(#clip0_69_274)">
<path d="M314.303 145.823C314.177 99.7402 277.457 62.3762 231.948 61.7949H184.139C174.397 61.7949 166.507 69.7691 166.507 79.6141V212.559C166.507 222.404 174.397 230.378 184.139 230.378C193.88 230.378 201.771 222.404 201.771 212.559V115.252C201.771 105.407 209.661 97.4333 219.403 97.4333H231.948C258.046 97.9964 279.039 119.539 279.039 146.059V212.413C279.039 222.258 286.929 230.233 296.671 230.233C306.413 230.233 314.303 222.258 314.303 212.413V145.805V145.823Z" fill="white"/>
<path d="M825.253 98.0327H873.368C883.11 98.0327 891 90.0586 891 80.2135C891 70.3685 883.11 62.3944 873.368 62.3944H825.253C815.512 62.3944 807.621 54.4202 807.621 44.5752V44.1211C807.621 34.276 799.731 26.3019 789.989 26.3019C780.248 26.3019 772.357 34.276 772.357 44.1211V147.131C772.915 193.196 810.03 230.36 855.736 230.36H873.368C883.11 230.36 891 222.386 891 212.54C891 202.695 883.11 194.721 873.368 194.721H855.736C829.495 194.721 808.179 173.505 807.621 147.131V115.834C807.621 105.989 815.512 98.0146 825.253 98.0146V98.0327Z" fill="white"/>
<path d="M563.523 256.117L647.459 168.474C657.219 158.284 657.057 142.045 647.082 132.073L559.82 44.7387C549.773 34.6757 533.543 34.7483 523.586 44.9203C513.629 55.0742 513.7 71.4766 523.766 81.5396L575.044 132.854C585.019 142.826 585.181 159.065 575.421 169.255L526.713 220.115C516.882 230.396 517.133 246.78 527.306 256.734C537.479 266.688 553.691 266.416 563.541 256.135L563.523 256.117Z" fill="#FAA819"/>
<path d="M519.146 192.033L552.091 157.63C555.92 153.634 555.848 147.258 551.948 143.335L517.69 109.04C513.736 105.099 507.373 105.117 503.473 109.113C499.573 113.109 499.591 119.539 503.545 123.481L523.675 143.625C527.593 147.549 527.665 153.924 523.819 157.92L504.695 177.883C500.831 181.915 500.939 188.346 504.929 192.251C508.919 196.156 515.282 196.047 519.146 192.015V192.033Z" fill="#FAA819"/>
<path d="M742.485 154.796L709.54 120.393C705.711 116.397 705.783 110.021 709.684 106.098L743.941 71.8035C747.895 67.8618 754.258 67.88 758.158 71.8761C762.058 75.8723 762.04 82.3025 758.086 86.2441L737.956 106.388C734.038 110.312 733.966 116.687 737.812 120.684L756.936 140.646C760.8 144.679 760.692 151.109 756.702 155.014C752.712 158.919 746.35 158.811 742.485 154.778V154.796Z" fill="#85D1DE"/>
<path d="M121.95 62.3399C111.526 62.3399 103.078 70.8772 103.078 81.4125V83.7557V158.447C103.078 175.631 90.3887 190.525 73.4577 192.088C54.0822 193.868 37.7443 178.428 37.7443 159.21V83.7375V81.3943C37.7443 70.859 29.2968 62.3218 18.8722 62.3218C8.44754 62.3218 0.107841 70.7863 0 81.249C0 81.3035 0 81.358 0 81.4125C0 81.467 0 81.5214 0 81.5759V159.228C0 198.518 31.5255 230.378 70.4201 230.378C109.315 230.378 140.822 198.518 140.822 159.228V81.4125C140.822 70.8772 132.375 62.3399 121.95 62.3399Z" fill="white"/>
<path d="M401.708 61.8677C358.482 63.5206 323.254 99.1227 321.618 142.808C319.803 190.852 357.817 230.378 404.961 230.378C425.451 230.378 444.197 222.912 458.72 210.524C459.672 209.707 460.589 208.89 461.506 208.036C464.382 204.857 466.161 200.625 466.161 195.975C466.161 188.4 461.506 181.952 454.927 179.336C452.932 178.537 450.74 178.083 448.457 178.083C446.174 178.083 444 178.537 441.987 179.336C440.261 180.026 438.679 180.953 437.26 182.115C436.972 182.388 436.666 182.66 436.361 182.915C427.931 190.271 416.949 194.74 404.943 194.74C389.019 194.74 374.945 186.911 366.192 174.886C360.117 165.204 373.975 164.024 379.079 163.915H472.002C481.133 163.206 488.34 155.523 488.34 146.096C488.34 98.4506 449.23 60.0512 401.69 61.8677H401.708ZM384.795 128.276C382.297 128.276 357.565 127.84 368.709 114.126C377.534 103.918 390.475 97.4516 404.943 97.4516C419.412 97.4516 432.155 103.809 440.962 113.89C442.795 116.252 449.967 127.295 425.307 128.295H384.777L384.795 128.276Z" fill="white"/>
<path opacity="0.25" d="M611.944 96.9247L605.905 104.608C598.266 114.344 599.003 128.294 607.63 137.159L642.822 173.306L658.963 156.994L611.944 96.9247Z" fill="#110F3E"/>
<path d="M697.354 218.88L613.417 131.237C603.658 121.047 603.819 104.808 613.795 94.8359L701.056 7.50189C711.103 -2.56114 727.333 -2.48848 737.291 7.68353C747.248 17.8374 747.176 34.2397 737.111 44.3028L685.833 95.6169C675.857 105.589 675.695 121.828 685.455 132.018L734.163 182.878C743.995 193.159 743.743 209.543 733.57 219.497C723.397 229.452 707.185 229.179 697.336 218.898L697.354 218.88Z" fill="#85D1DE"/>
</g>
<defs>
<clipPath id="clip0_69_274">
<rect width="891" height="264" fill="white"/>
</clipPath>
</defs>
</svg>
