<svg width="104" height="104" viewBox="0 0 104 104" fill="none" xmlns="http://www.w3.org/2000/svg">
<circle cx="52" cy="52" r="52" fill="white"/>
<path d="M33.9532 88.7906L57.0332 64.224C59.717 61.3677 59.6724 56.8158 56.9296 54.0206L32.935 29.5406C30.1723 26.7199 25.7095 26.7402 22.9716 29.5915C20.2337 32.4376 20.2533 37.0353 23.0211 39.856L37.1211 54.2396C39.864 57.0347 39.9085 61.5866 37.2248 64.4429L23.8315 78.6991C21.1282 81.5809 21.1973 86.1734 23.9945 88.9635C26.7918 91.7536 31.2497 91.6774 33.9581 88.7956L33.9532 88.7906Z" fill="#FAA819"/>
<path d="M21.7507 70.8275L30.8097 61.1842C31.8626 60.0642 31.8428 58.2769 30.7704 57.1773L21.3504 47.5643C20.2631 46.4596 18.5135 46.4647 17.4411 47.5848C16.3687 48.7049 16.3737 50.5072 17.4609 51.6122L22.9961 57.2586C24.0734 58.3585 24.0932 60.1454 23.0357 61.2655L17.7771 66.8612C16.7146 67.9914 16.7443 69.794 17.8415 70.8886C18.9386 71.9832 20.6882 71.9526 21.7507 70.8225V70.8275Z" fill="#FAA819"/>
<path d="M83.1626 60.39L74.1036 50.7467C73.0507 49.6267 73.0705 47.8394 74.1432 46.7398L83.5629 37.127C84.6501 36.0221 86.3998 36.0272 87.4722 37.1473C88.5446 38.2675 88.5396 40.0699 87.4524 41.1747L81.9172 46.8211C80.8399 47.921 80.8201 49.7079 81.8776 50.8283L87.1362 56.4237C88.1987 57.5542 88.169 59.3565 87.0718 60.4511C85.9747 61.5457 84.2253 61.5154 83.1626 60.385V60.39Z" fill="#85D1DE"/>
<path d="M70.7527 78.353L47.6723 53.7864C44.9889 50.9301 45.0332 46.3783 47.7763 43.5831L71.7706 19.1031C74.5333 16.2824 78.9961 16.3027 81.7342 19.154C84.4721 22.0001 84.4523 26.5978 81.6847 29.4185L67.5847 43.802C64.8416 46.5972 64.7971 51.149 67.4808 54.0053L80.8741 68.2615C83.5776 71.1433 83.5083 75.7358 80.7111 78.5259C77.9138 81.3164 73.4559 81.2398 70.7477 78.358L70.7527 78.353Z" fill="#85D1DE"/>
</svg>
