<?xml version='1.0' encoding='utf-8'?>
<svg xmlns="http://www.w3.org/2000/svg" width="10000" height="10000" viewBox="0 0 10000 10000" fill="none">
<defs><pattern id="topoPattern" patternUnits="userSpaceOnUse" width="10000" height="10000"><g clip-path="url(#clip0_601_12)">
<rect width="10000" height="10000" rx="400" fill="#232040" />
<path d="M8446 2419.57C8421.57 2371.67 8384.97 2292.49 8333.78 2268.86C8249.8 2230.09 8160.38 2295 8084.98 2328.96C7945.42 2391.8 7788.03 2432.08 7655.55 2331.32C7502.62 2215.02 7457 1995.09 7304.57 1875.46C7114.1 1725.98 6866.58 1698.31 6654.89 1597.76C6475.41 1512.52 6327.19 1371.24 6147.53 1284.91C5827.84 1131.32 5327.4 1057.3 4976.88 1091.32C4666.64 1121.44 4353.22 1204.5 4059.03 1311C3879.51 1375.98 3715.11 1473.37 3526.25 1508.61C3076.11 1592.59 2543.82 1316.81 2167.71 1685.9C1845.55 2002.03 1832.49 2516.83 1994.38 2920.84C2088.79 3156.42 2314.65 3380.52 2175.8 3645.14C2062.35 3861.35 1811.72 3929.63 1612.84 4024.68C1249.99 4198.09 936.104 4498.15 969.434 4958.17" stroke="#FFEE59" stroke-width="230" stroke-miterlimit="1.5" stroke-linecap="round" stroke-linejoin="round" />
<path d="M2901.37 4194.62C2871.64 4101.18 2825.62 3995.09 2830.04 3895.69C2841.41 3639.66 3100.07 3460.55 3322.12 3393.83C3420.63 3364.22 3738.62 3279.72 3833.17 3336.16C3918.11 3386.85 3953.93 3497.5 3981.75 3586.35C3997.24 3635.8 4029.11 3705.98 4018.95 3758.52C4004.89 3831.25 3909.85 3840.93 3851.49 3856.77C3724.01 3891.38 3608.37 3957.87 3509.74 4045.12C3387.3 4153.46 3300.31 4296.77 3260.48 4454.83C3231.85 4568.44 3242.55 4739.22 3119.73 4802.61C3023.72 4852.16 2873.59 4744.14 2794.78 4699.99C2603.56 4592.88 2384.43 4493.07 2160.23 4523.11C1950.84 4551.18 1797.94 4634.94 1667.1 4798.56C1605.74 4875.31 1566.75 4999.33 1627.33 5088.11C1692.7 5183.89 1819.32 5174.13 1918.78 5149.69C2051.53 5117.06 2211.68 5080.24 2348.28 5108.69C2695.89 5181.08 3003.73 5645.8 3385.82 5519.55C3598.99 5449.12 3650.68 5109.3 3767.98 4940.63C3991.12 4619.78 4398.64 4532.18 4767 4577.67" stroke="#40FF92" stroke-width="230" stroke-miterlimit="1.5" stroke-linecap="round" stroke-linejoin="round" />
<path d="M8989.99 3917.05C8850.75 3694.57 8795.45 3349.19 8583.5 3185.12C8213.69 2898.87 7576.52 3262.09 7549.46 3696.83C7529.25 4021.6 7648.81 4304.03 7745.46 4604.82C7787.77 4736.53 7849.66 4968.7 7781.89 5102.4C7685.86 5291.89 7508.28 5320.81 7334.08 5410.49C7143.96 5508.37 6973.45 5644.54 6784.8 5747.13C6411.35 5950.22 5974.85 6123.67 5570.77 5896.29C5323.63 5757.21 5140.02 5523.41 4903.95 5366.3C4700.59 5230.98 4350.28 5130.07 4202.87 5397.02C3990.23 5782.1 4464.22 5846.17 4661.09 5987.38C4843.38 6118.13 4952.93 6319.69 5123.42 6461.76C5311.44 6618.43 5929.39 6696.1 5635.54 7101.03C5569.86 7191.54 5492.83 7266.4 5432.52 7362.5C5357.7 7481.68 5269.56 7614.05 5142.19 7682.45C4962.38 7779 4893.66 7669.28 4850.39 7491.35C4756.46 7105.14 4817.29 6719.31 4426.04 6477.03C4078.34 6261.74 3685.72 6369.49 3311.36 6289.71C2989.89 6221.19 2750 5993.41 2442.33 5902.49" stroke="#AB40FF" stroke-width="230" stroke-miterlimit="1.5" stroke-linecap="round" stroke-linejoin="round" />
<path d="M9010.89 3951.41C9037.63 3987.62 9068.72 4023.15 9103.96 4051.35C9332.73 4234.52 9510.31 3914.72 9584.57 3749.05C9601.13 3712.11 9614.54 3673.21 9628.23 3635.11C9646.34 3584.72 9668.09 3535.28 9693.22 3488.02C9728.3 3422.11 9767.7 3353.4 9817.2 3297.1C9953.47 3142.16 10169.8 3105.08 10309.4 3274.65C10378.8 3358.99 10414.6 3471.68 10430.8 3578.32C10464.2 3798.72 10418 4102.36 10255 4266.39C10159.9 4362.16 10031 4413.4 9917.2 4482.29C9768.62 4572.27 9632.42 4680.34 9516.88 4810.5C9434.19 4903.65 9362.53 5011.27 9313.15 5125.74C9252.44 5266.48 9213.36 5414.42 9110.94 5532.51C8931.58 5739.27 8582.43 5891.92 8653.38 6218.7C8705.46 6458.54 9097.38 6381.82 9249.99 6316.39C9293.83 6297.6 9336.46 6275.25 9375.39 6247.55C9699.49 6017.01 9656.71 5535.43 9871.02 5223.53C9959.28 5095.1 10159.7 4928.6 10299.8 5088.82C10606.1 5439.21 10211.6 5867.56 10092.6 6194.76C10015 6408.31 10062.4 6685.34 9844.02 6822.03C9800.29 6849.41 9752.99 6870.24 9703.82 6885.66C9538.63 6937.43 9363.94 6946.55 9199.56 6887.02C9058.45 6835.93 8927.33 6724.81 8768.52 6737.94" stroke="#AB40FF" stroke-width="230" stroke-miterlimit="1.5" stroke-linecap="round" stroke-linejoin="round" />
<path d="M-989.112 3951.41C-962.372 3987.62 -931.284 4023.15 -896.046 4051.35C-667.272 4234.52 -489.69 3914.72 -415.436 3749.05C-398.874 3712.11 -385.467 3673.21 -371.774 3635.11C-353.658 3584.72 -331.914 3535.28 -306.777 3488.02C-271.701 3422.11 -232.3 3353.4 -182.798 3297.1C-46.5295 3142.16 169.844 3105.08 309.381 3274.65C378.776 3358.99 414.648 3471.68 430.813 3578.32C464.212 3798.72 417.965 4102.36 255.044 4266.39C159.916 4362.16 30.9675 4413.4 -82.7985 4482.29C-231.381 4572.27 -367.587 4680.34 -483.117 4810.5C-565.807 4903.65 -637.476 5011.27 -686.854 5125.74C-747.564 5266.48 -786.642 5414.42 -889.063 5532.51C-1068.42 5739.27 -1417.57 5891.92 -1346.62 6218.7C-1294.54 6458.54 -902.619 6381.82 -750.012 6316.39C-706.176 6297.6 -663.545 6275.25 -624.616 6247.55C-300.515 6017.01 -343.295 5535.43 -128.984 5223.53C-40.7266 5095.1 159.743 4928.6 299.814 5088.82C606.11 5439.21 211.568 5867.56 92.6214 6194.76C15.0004 6408.31 62.3785 6685.34 -155.984 6822.03C-199.709 6849.41 -247.011 6870.24 -296.178 6885.66C-461.372 6937.43 -636.06 6946.55 -800.447 6887.02C-941.548 6835.93 -1072.67 6724.81 -1231.48 6737.94" stroke="#AB40FF" stroke-width="230" stroke-miterlimit="1.5" stroke-linecap="round" stroke-linejoin="round" />
<path d="M8266.89 3740.17C8182.9 4167.1 8523.12 4423.42 8528.92 4828.06C8535.95 5317.79 8008.52 5922.58 7734.99 6303.17" stroke="#40FF92" stroke-width="230" stroke-miterlimit="1.5" stroke-linecap="round" stroke-linejoin="round" />
<path d="M7353.5 5988.52C7123.38 6287.19 6911.36 6198.1 6637.5 6441.02C6504.3 6559.16 6268.73 6782.1 6308 6976.02C6344.42 7155.95 6562.84 7347.5 6711.5 7321.52C7017.32 7268.07 7514.46 6754.35 7797.21 6924.57C7992.57 7042.18 8104.91 7252.4 8301.72 7365.28C8507.09 7483.07 8725.33 7427.22 8941.94 7493.36C9122.18 7548.39 9250.55 7690.29 9424.42 7753.65C9696.94 7852.97 10074 7719.92 10271 7969.97C10478.1 8232.88 10420.7 8525.31 10451.8 8833.54C10473.7 9050.35 10549.2 9250.27 10608 9458.18" stroke="#40BAFF" stroke-width="230" stroke-miterlimit="1.5" stroke-linecap="round" stroke-linejoin="round" />
<path d="M-2544.31 5826.17C-2774.43 6124.84 -3138.16 6225.34 -3412.02 6468.27C-3545.22 6586.41 -3673.06 6712.18 -3633.79 6906.11C-3597.37 7086.04 -3374.63 7120.07 -3225.97 7094.09C-2920.15 7040.64 -2485.54 6754.34 -2202.78 6924.56C-2007.43 7042.17 -1895.08 7252.39 -1698.28 7365.27C-1492.91 7483.06 -1274.67 7427.21 -1058.06 7493.35C-877.814 7548.38 -749.453 7690.28 -575.582 7753.64C-303.06 7852.96 73.9688 7719.91 270.962 7969.96C478.085 8232.87 420.667 8525.3 451.806 8833.53C473.709 9050.34 549.202 9250.26 608 9458.17" stroke="#40BAFF" stroke-width="230" stroke-miterlimit="1.5" stroke-linecap="round" stroke-linejoin="round" />
<path d="M8218.68 8917.62C8715.65 9201.55 9062.22 9423.4 9658.01 9380.09C10009.3 9354.55 10073.4 8814.3 9821.61 8615.88C9641.41 8473.87 9366.28 8512.09 9152.73 8511.18C8853.78 8509.92 8524.54 8466.06 8250.55 8340.39C7987.68 8219.83 7810.28 7978.23 7573.53 7819.38C7510.48 7777.07 7368.51 7682.37 7311.63 7764.79C7103.07 8067.03 7431.27 8409.59 7563.24 8669.51C7674.44 8888.53 7719.86 9152.78 7755.61 9394.17" stroke="#40FF92" stroke-width="230" stroke-miterlimit="1.5" stroke-linecap="round" stroke-linejoin="round" />
<path d="M-1781.32 8917.62C-1284.35 9201.55 -937.772 9423.4 -341.99 9380.09C9.25585 9354.55 73.4098 8814.3 -178.382 8615.88C-358.591 8473.87 -633.718 8512.09 -847.264 8511.18C-1146.22 8509.92 -1475.46 8466.06 -1749.45 8340.39C-2012.32 8219.83 -2189.72 7978.23 -2426.47 7819.38C-2489.52 7777.07 -2631.49 7682.37 -2688.37 7764.79C-2896.93 8067.03 -2568.73 8409.59 -2436.76 8669.51C-2325.56 8888.53 -2280.14 9152.78 -2244.39 9394.17" stroke="#40FF92" stroke-width="230" stroke-miterlimit="1.5" stroke-linecap="round" stroke-linejoin="round" />
<path d="M3708 7919.09C3873.2 7695.41 4068.58 7696.69 4249.79 7910.9C4469.17 8170.21 4521.21 8550.5 4922.48 8571.29C5521.26 8602.31 5598.91 7809.17 6116 7571.17" stroke="#40FF92" stroke-width="230" stroke-miterlimit="1.5" stroke-linecap="round" stroke-linejoin="round" />
<path d="M4288 8766.71C4483.44 9080.63 4841.23 9310.4 5222.02 9208.6C5529.53 9126.38 5838.3 8862.32 6054.44 8637.52C6181.95 8504.89 6414.54 8062.85 6634.53 8132.58C6794.85 8183.39 6880.68 8362.67 6910.71 8516.25C6973.77 8838.8 6852.9 9161.94 7019 9467.17" stroke="#FF9950" stroke-width="230" stroke-miterlimit="1.5" stroke-linecap="round" stroke-linejoin="round" />
<path d="M6507.15 8851.88C6507.15 9095.94 6307.25 9313.7 6472.4 10108.4" stroke="#40BAFF" stroke-width="230" stroke-miterlimit="1.5" stroke-linecap="round" stroke-linejoin="round" />
<path d="M6507.15 -1148.13C6507.15 -904.069 6307.25 -686.309 6472.4 108.411" stroke="#40BAFF" stroke-width="230" stroke-miterlimit="1.5" stroke-linecap="round" stroke-linejoin="round" />
<path d="M6070.94 9403.12C5743.73 9777.71 5038.48 10244.7 4622.26 9839.35C3894.45 9130.57 3882.32 10256.7 3858.46 10598.2" stroke="#40FF92" stroke-width="230" stroke-miterlimit="1.5" stroke-linecap="round" stroke-linejoin="round" />
<path d="M6070.94 9403.12C5743.73 9777.71 5038.48 10244.7 4622.26 9839.35C3894.45 9130.57 3882.32 10256.7 3858.46 10598.2" stroke="#AB40FF" stroke-width="230" stroke-miterlimit="1.5" stroke-linecap="round" stroke-linejoin="round" />
<path d="M6070.94 -596.891C5743.73 -222.306 5038.48 244.684 4622.26 -160.667C4151.25 -619.358 3979.98 -309.574 3911.29 58.7082" stroke="#AB40FF" stroke-width="230" stroke-miterlimit="1.5" stroke-linecap="round" stroke-linejoin="round" />
<path d="M4104.27 -733.859C3980.34 -369.881 3903 776.356 3262.16 720.418" stroke="#AB40FF" stroke-width="230" stroke-miterlimit="1.5" stroke-linecap="round" stroke-linejoin="round" />
<path d="M3933.21 -1300.41C3725.64 -1146.72 3547.11 -970.803 3431.38 -720.543C3307.64 -452.982 3280.8 -156.109 3031.51 13.074C2680.21 251.493 2382.84 -45.941 2026.72 -56.886C1501.82 -73.016 920.964 648.702 -244.398 -58.829" stroke="#FFEE59" stroke-width="230" stroke-miterlimit="1.5" stroke-linecap="round" stroke-linejoin="round" />
<path d="M3933.2 8706.11C3725.63 8859.8 3547.1 9035.72 3431.37 9285.98C3307.63 9553.54 3280.79 9850.41 3031.5 10019.6C2680.2 10258 2382.83 9960.58 2026.71 9949.63C1447.81 9871.79 1143.18 10652 -225.883 9962.97" stroke="#FFEE59" stroke-width="230" stroke-miterlimit="1.5" stroke-linecap="round" stroke-linejoin="round" />
<path d="M1191.67 9476.08C1037.53 8726.76 1610.49 8583.8 2484.47 9351.73" stroke="#40FF92" stroke-width="230" stroke-miterlimit="1.5" stroke-linecap="round" stroke-linejoin="round" />
<path d="M4248 624.298C4691.35 526.799 5161.82 402.086 5616.22 492.39C5987.33 566.129 6310.45 782.799 6673.95 879.664C7257.59 1035.19 7597.45 912.196 7983 1483.17" stroke="#40FF92" stroke-width="230" stroke-miterlimit="1.5" stroke-linecap="round" stroke-linejoin="round" />
<path d="M8834 737.172C8612.72 1048.23 8339.89 1418.86 8393.93 1825.17" stroke="#40BAFF" stroke-width="230" stroke-miterlimit="1.5" stroke-linecap="round" stroke-linejoin="round" />
<path d="M9469.07 822.172C9288.07 1067.97 8980.83 1324.9 8927.25 1640.03C8896.51 1820.84 8973.84 1997.83 8965.29 2180.28C8960.79 2276.67 8971.57 2718.88 9080.59 2770.12C9338.35 2891.27 9695.47 2363.43 9984.99 2348.34" stroke="#FF596D" stroke-width="230" stroke-miterlimit="1.5" stroke-linecap="round" stroke-linejoin="round" />
<path d="M148.133 886.129C1164.88 1012.62 1096.74 565.045 2484.46 448.596" stroke="#AB40FF" stroke-width="230" stroke-miterlimit="1.5" stroke-linecap="round" stroke-linejoin="round" />
<path d="M-673.008 1817.17C-338.766 1774.82 -0.241741 1730.08 312.992 1601.17" stroke="#FF596D" stroke-width="230" stroke-miterlimit="1.5" stroke-linecap="round" stroke-linejoin="round" />
<path d="M9333.01 1817.17C9667.25 1774.82 10005.8 1730.08 10319 1601.17" stroke="#FF596D" stroke-width="230" stroke-miterlimit="1.5" stroke-linecap="round" stroke-linejoin="round" />
<path d="M1507.52 6100.97C1452.69 6260.07 1400.18 6426.58 1379.83 6593.97" stroke="#40BAFF" stroke-width="230" stroke-miterlimit="1.5" stroke-linecap="round" stroke-linejoin="round" />
<path d="M7166.99 427.229C7556.87 594.014 8016.95 -180.725 9630.77 -232.754" stroke="#40FF92" stroke-width="230" stroke-miterlimit="1.5" stroke-linecap="round" stroke-linejoin="round" />
<path d="M7166.99 427.229C7556.87 594.014 8016.95 -180.725 9630.77 -232.754" stroke="#40FF92" stroke-width="230" stroke-miterlimit="1.5" stroke-linecap="round" stroke-linejoin="round" />
<path d="M7166.99 10433.3C7556.87 10600.1 8528.96 9332.18 10437.9 10234.5" stroke="#FF596D" stroke-width="230" stroke-miterlimit="1.5" stroke-linecap="round" stroke-linejoin="round" />
<path d="M7166.99 435.213C7618.33 588.341 8537.33 -683.443 10556.7 312.267" stroke="#FF596D" stroke-width="230" stroke-miterlimit="1.5" stroke-linecap="round" stroke-linejoin="round" />
<path d="M965.657 1495.82C901.854 1506.33 823.437 1516.19 768.818 1555.02C671.472 1624.2 658.348 1755.09 667.37 1866.68C686.422 2102.08 779.605 2325.82 810.052 2559.84C841.096 2798.45 813.829 3026.77 819.708 3264.81C824.045 3440.53 868.549 3661.32 1085 3638.54C1527.12 3592 1447.4 3054.85 1377.65 2758.06C1361.22 2688.16 1347.93 2618.21 1339.14 2546.83C1327.51 2452.27 1316.91 2354.98 1320.85 2259.61C1328.38 2077.91 1362.79 1895.74 1407.84 1720.01C1444.38 1577.47 1488.78 1431.65 1572.98 1309.88C1812.01 964.213 2322.55 879.213 2706.68 940.479C2883.5 968.673 3050.25 1034.21 3219.99 1089.2" stroke="#40BAFF" stroke-width="230" stroke-miterlimit="1.5" stroke-linecap="round" stroke-linejoin="round" />
<path d="M6990.25 4480.55C7126.72 5207.97 6059.24 5717.82 5567.83 5200.26C5255.47 4871.27 5209.07 4382.39 5377.22 3973.79C5457.13 3779.6 5805.84 3429.67 5620.85 3239.96C5544.98 3162.15 5410.16 3192.05 5318.48 3215.3C5062.22 3280.3 4376.68 3742.44 4373.14 3163.33C4372.78 3103.9 4381.39 3043.44 4401.57 2987.38C4484.41 2757.17 4747.14 2667.59 4965.55 2615.39C5443.23 2501.2 6175.05 2518.59 6454.96 3012.71C6590.06 3251.19 6426.05 3407.73 6277.39 3587.66C6140.72 3753.08 5986.14 3959.98 5907.96 4160.64C5833.05 4352.9 5831.9 4588.33 6005.38 4726.15C6152.14 4842.76 6358.39 4731.16 6434.48 4587.1C6510.55 4443.04 6494.32 4272.02 6568.88 4128.58C6643.11 3985.77 6770.75 3878.18 6849.53 3737.59C6939.34 3577.26 6972.27 3390.31 7047.94 3222.59C7111.67 3081.36 7208.17 2877 7148.02 2719.69C7082.59 2548.63 6802.07 2597.81 6652.21 2480.42C6468.06 2336.16 6292.83 2170.34 6080.13 2067.13C5621.22 1844.48 5004.75 1857.23 4526.52 2016.01C4276.3 2099.1 4087.27 2325.12 3828.18 2375.37C3497.21 2439.56 3225.79 2197.48 2926.37 2250.15C2714.01 2287.5 2621.08 2601.12 2766.04 2754.04C3049.84 3053.41 3461.28 2631.52 3763.31 2805.18" stroke="#FF596D" stroke-width="230" stroke-miterlimit="1.5" stroke-linecap="round" stroke-linejoin="round" />
<path d="M3981.98 6932.37C3574.23 7052.84 3233.75 7210.66 3111.48 7653.1C3082.24 7758.95 3067.41 7865.04 3073.39 7974.91C3089.52 8271.52 3220.49 8703.82 2753.12 8697.09C2232.89 8689.61 2372.32 7891.39 2423.49 7567.16C2441.26 7454.54 2451.29 7318.21 2516.34 7220.83C2626.94 7055.2 2852.56 7007.9 2954.29 6840.81C3021.47 6730.44 2940.74 6607.5 2853.9 6538.73C2384.93 6167.4 1750.62 6707.39 1718.44 7208.74C1700.28 7491.89 1864.67 7798.56 1740.74 8072.25C1630.92 8314.76 1354.18 8289.01 1207.83 8096.32C1076.62 7923.6 870.317 7699.21 859.493 7491.35C847.687 7264.88 889.094 7065.68 859.493 6840.81C826.412 6589.57 805.496 6149.51 1005.92 5987.38" stroke="#FF9950" stroke-width="230" stroke-miterlimit="1.5" stroke-linecap="round" stroke-linejoin="round" />
</g>
<defs>
<clipPath id="clip0_601_12">
<rect width="10000" height="10000" rx="400" fill="white" />
</clipPath>
</defs>
</pattern></defs><rect width="100%" height="100%" fill="url(#topoPattern)" /></svg>